<svg id="star8" xmlns="http://www.w3.org/2000/svg" width="1.77in" height="1.77in" viewBox="0 0 127.57 127.3">
  <defs>
    <style>
      .cls-1 {
        fill: #fc3;
        stroke: #fc3;
        stroke-miterlimit: 10;
      }
    </style>
  </defs>
  <path id="_8" data-name="8" class="cls-1" d="M58.8,126.59c.2-11.7-1.08-36.7-17.15-60.9a100.58,100.58,0,0,0-18.92-21.2A92.63,92.63,0,0,0,45,24.74,92.67,92.67,0,0,0,58.8,1.46,71.65,71.65,0,0,0,71.37,24.74,71.85,71.85,0,0,0,94.65,43.51,94.58,94.58,0,0,0,74.91,64.86C58.26,89.68,58.18,115.76,58.8,126.59Zm57.38-30.1a47.44,47.44,0,0,1,10.47-10.31,36.18,36.18,0,0,1-17.12-22.06A46.74,46.74,0,0,1,90.33,85a51,51,0,0,1,9,11.14,54.09,54.09,0,0,1,7.23,31.14C106.55,121.79,107.2,108.63,116.18,96.49ZM13.6,17.44a23.79,23.79,0,0,1,5.17-5.09,18,18,0,0,1-5.58-4.94,18,18,0,0,1-2.87-5.95A23,23,0,0,1,6.61,7.1,23,23,0,0,1,.84,11.76a25.47,25.47,0,0,1,4.47,5.5A26.81,26.81,0,0,1,8.88,32.64,25.23,25.23,0,0,1,13.6,17.44Z"/>
</svg>
